<?xml version="1.0" encoding="UTF-8"?><svg id="Layer_1" xmlns="http://www.w3.org/2000/svg" viewBox="0 0 508.05 144"><defs><style>.cls-1{fill:none;stroke:#000;stroke-miterlimit:10;stroke-width:6px;}</style></defs><path d="M139,6V138H6V6H139m6-6H0V144H145V0h0Z"/><line class="cls-1" x1="73" x2="73" y2="144"/><line class="cls-1" x1="1" y1="72" x2="145" y2="72"/><g><path d="M187.2,63.36h-3.85v-7.04h-.12c-1.32,5.11-5.35,7.76-10.35,7.76-13.41,0-14.44-13.35-14.44-23.94s1.86-23.16,14.92-23.16c8.6,0,13.53,5.59,13.41,14.01h-5.05c-.06-5.53-2.41-9.38-8.12-9.5-9.86-.18-9.98,11.13-9.98,18.83,0,6.86-.36,18.83,8.54,19.25,9.26,.42,10.1-8.06,10.04-15.22h-10.04v-4.51h15.04v23.52Z"/><path d="M204.29,17.89h6.62l12.69,45.11h-5.53l-3.55-12.99h-14.26l-3.31,12.99h-5.53l12.87-45.11Zm3.25,3.61h-.12l-5.96,24h11.91l-5.83-24Z"/><path d="M256.44,17.89h8.78V63h-4.99V25.83c0-1.92,.12-3.79,0-5.71h-.12c-.54,2.65-.96,4.33-1.38,6.08l-9.44,36.81h-5.95l-9.44-37.35c-.42-1.56-.78-3.07-1.32-5.53h-.12c0,1.92,.12,3.91,.12,5.83V63h-4.99V17.89h8.84l8.84,35.19c.48,1.92,.72,3.79,.96,6.68h.12c.3-2.29,.6-4.51,1.14-6.74l8.96-35.13Z"/><path d="M273.04,63V17.89h22.56v4.51h-17.56v14.92h16.48v4.51h-16.48v16.66h17.68v4.51h-22.68Z"/><path d="M312.2,17.89h28.33v4.51h-11.67V63h-4.99V22.4h-11.67v-4.51Z"/><path d="M344.92,63V17.89h4.99v18.83h17.26V17.89h4.99V63h-4.99v-21.77h-17.26v21.77h-4.99Z"/><path d="M380.17,63V17.89h22.56v4.51h-17.56v14.92h16.48v4.51h-16.48v16.66h17.68v4.51h-22.68Z"/><path d="M423.12,16.99c13.17,0,14.8,12.15,14.74,22.5-.06,12.51-1.68,24.6-14.86,24.6s-14.74-12.09-14.86-24.6c0-10.35,1.56-22.5,14.98-22.5Zm-.24,4.51c-7.7,0-9.62,8.06-9.56,18.1,.06,13.05,1.38,19.97,9.68,19.97s9.62-6.92,9.68-19.97c.06-10.04-1.86-18.1-9.8-18.1Z"/><path d="M450.3,63h-4.99V17.89h11.61c9.44,0,15.46,2.47,15.16,12.87-.18,5.29-3.43,9.08-8.66,9.8v.12c5.83,.54,7.28,2.41,8,8.42,.18,3.37,.48,6.68,.96,10.04,.18,.84,.54,2.83,1.74,2.83v1.02h-5.83c-1.08-2.89-1.56-8.48-1.56-11.49,0-4.51-1.8-8.36-7.7-8.36h-8.72v19.85Zm0-24.36h7.88c2.35-.06,8.84-.42,8.72-8.3-.12-7.76-6.2-7.94-9.56-7.94h-7.04v16.24Z"/><path d="M491.33,40.5l10.59-22.62h5.53l-13.65,27.61v17.5h-4.99v-17.5l-13.53-27.61h5.53l10.53,22.62Z"/><path d="M187.2,119.54h-3.85v-7.04h-.12c-1.32,5.11-5.35,7.76-10.35,7.76-13.41,0-14.44-13.35-14.44-23.94s1.86-23.16,14.92-23.16c8.6,0,13.53,5.59,13.41,14.01h-5.05c-.06-5.53-2.41-9.38-8.12-9.5-9.86-.18-9.98,11.13-9.98,18.83,0,6.86-.36,18.83,8.54,19.25,9.26,.42,10.1-8.06,10.04-15.22h-10.04v-4.51h15.04v23.52Z"/><path d="M195.62,74.07h4.99v32.42c-.06,3.55,.54,9.26,8.54,9.26s8.6-5.71,8.54-9.26v-32.42h4.99v34.23c0,8.06-5.35,11.97-13.53,11.97s-13.53-3.91-13.53-11.97v-34.23Z"/><path d="M232.2,119.18v-45.11h4.99v45.11h-4.99Z"/><path d="M246.75,119.18v-45.11h12.39c14.08,0,16,11.43,15.64,22.56-.36,11.01-2.53,22.56-14.74,22.56h-13.29Zm4.99-4.51h8c7.34,0,10.35-5.47,9.86-18.95-.36-10.29-1.8-17.14-9.86-17.14h-8v36.09Z"/><path d="M281.82,119.18v-45.11h22.56v4.51h-17.56v14.92h16.48v4.51h-16.48v16.66h17.68v4.51h-22.68Z"/></g></svg>